<svg width="48" height="48" viewBox="0 0 48 48" fill="none" xmlns="http://www.w3.org/2000/svg">
<path d="M20.6369 31.5154L14.5519 25.4325C13.9991 24.8794 13.2493 24.5686 12.4673 24.5684C11.6854 24.5682 10.9354 24.8787 10.3823 25.4315C9.82926 25.9843 9.51845 26.7342 9.51826 27.5161C9.51808 28.2981 9.82854 29.0481 10.3813 29.6011L21.4997 40.7195C21.7735 40.9935 22.0986 41.2108 22.4564 41.3591C22.8142 41.5073 23.1977 41.5836 23.585 41.5836C23.9723 41.5836 24.3558 41.5073 24.7136 41.3591C25.0714 41.2108 25.3965 40.9935 25.6703 40.7195L36.7887 29.6031C37.0625 29.3293 37.2797 29.0041 37.4279 28.6463C37.5762 28.2886 37.6524 27.9051 37.6524 27.5178C37.6524 27.1305 37.5762 26.747 37.4279 26.3892C37.2797 26.0314 37.0625 25.7063 36.7887 25.4325C36.5148 25.1586 36.1897 24.9414 35.8319 24.7932C35.4741 24.645 35.0906 24.5687 34.7034 24.5687C34.3161 24.5687 33.9326 24.645 33.5748 24.7932C33.217 24.9414 32.8919 25.1586 32.6181 25.4325L26.5331 31.5154V8.84437C26.5331 8.06247 26.2225 7.31261 25.6696 6.75973C25.1168 6.20685 24.3669 5.89624 23.585 5.89624C22.8031 5.89624 22.0532 6.20685 21.5004 6.75973C20.9475 7.31261 20.6369 8.06247 20.6369 8.84437V31.5154Z" fill="#403F3F"/>
</svg>
