<svg width="48" height="48" viewBox="0 0 48 48" fill="none" xmlns="http://www.w3.org/2000/svg">
<g clip-path="url(#clip0_76_24)">
<path d="M26.4945 6.88494C25.9418 6.3329 25.1925 6.02283 24.4113 6.02283C23.6302 6.02283 22.8809 6.3329 22.3282 6.88494L11.2069 18.0003C10.6539 18.5533 10.3432 19.3034 10.3432 20.0854C10.3432 20.8675 10.6539 21.6175 11.2069 22.1706C11.7599 22.7236 12.51 23.0342 13.292 23.0342C14.0741 23.0342 14.8241 22.7236 15.3771 22.1706L21.4635 16.0862V38.7552C21.4635 39.537 21.7741 40.2868 22.3269 40.8396C22.8797 41.3925 23.6295 41.703 24.4113 41.703C25.1932 41.703 25.943 41.3925 26.4958 40.8396C27.0486 40.2868 27.3592 39.537 27.3592 38.7552V16.0862L33.4436 22.1706C33.7174 22.4444 34.0425 22.6616 34.4002 22.8098C34.758 22.958 35.1415 23.0342 35.5287 23.0342C35.9159 23.0342 36.2994 22.958 36.6572 22.8098C37.0149 22.6616 37.34 22.4444 37.6138 22.1706C37.8876 21.8967 38.1048 21.5717 38.253 21.2139C38.4012 20.8561 38.4775 20.4727 38.4775 20.0854C38.4775 19.6982 38.4012 19.3147 38.253 18.957C38.1048 18.5992 37.8876 18.2741 37.6138 18.0003L26.4945 6.88494Z" fill="#403F3F"/>
</g>
<defs>
<clipPath id="clip0_76_24">
<rect width="47.1657" height="47.1657" fill="white" transform="translate(0.828491 0.433105)"/>
</clipPath>
</defs>
</svg>
