<svg width="32" height="22" viewBox="0 0 32 22" fill="none" xmlns="http://www.w3.org/2000/svg">
<path d="M27.4167 0H3.91667C2.8779 0 1.88168 0.412647 1.14716 1.14716C0.412647 1.88168 0 2.8779 0 3.91667C0 4.95543 0.412647 5.95165 1.14716 6.68617C1.88168 7.42068 2.8779 7.83333 3.91667 7.83333H27.4167C28.4554 7.83333 29.4517 7.42068 30.1862 6.68617C30.9207 5.95165 31.3333 4.95543 31.3333 3.91667C31.3333 2.8779 30.9207 1.88168 30.1862 1.14716C29.4517 0.412647 28.4554 0 27.4167 0ZM27.4167 13.7083H3.91667C2.8779 13.7083 1.88168 14.121 1.14716 14.8555C0.412647 15.59 0 16.5862 0 17.625C0 18.6638 0.412647 19.66 1.14716 20.3945C1.88168 21.129 2.8779 21.5417 3.91667 21.5417H27.4167C28.4554 21.5417 29.4517 21.129 30.1862 20.3945C30.9207 19.66 31.3333 18.6638 31.3333 17.625C31.3333 16.5862 30.9207 15.59 30.1862 14.8555C29.4517 14.121 28.4554 13.7083 27.4167 13.7083Z" fill="#403F3F"/>
</svg>
