<svg width="77" height="77" viewBox="0 0 77 77" fill="none" xmlns="http://www.w3.org/2000/svg">
<path d="M72.1273 60.1135L59.9331 47.9193L50.5535 44.0441C53.6766 39.6029 55.3498 34.3044 55.3437 28.875C55.3437 14.28 43.47 2.40625 28.875 2.40625C14.28 2.40625 2.40625 14.28 2.40625 28.875C2.40625 43.47 14.28 55.3437 28.875 55.3437C34.3517 55.35 39.6939 53.6479 44.1575 50.4745L48.0226 59.8288L60.2164 72.0237C60.9984 72.8058 61.9269 73.4262 62.9487 73.8495C63.9704 74.2728 65.0656 74.4906 66.1716 74.4907C67.2776 74.4907 68.3728 74.2729 69.3946 73.8497C70.4164 73.4265 71.3449 72.8061 72.127 72.0241C72.909 71.2421 73.5294 70.3136 73.9527 69.2918C74.376 68.27 74.5939 67.1749 74.5939 66.0689C74.5939 64.9629 74.3761 63.8677 73.9529 62.8459C73.5297 61.8241 72.9094 60.8956 72.1273 60.1135ZM7.21875 28.875C7.21875 16.934 16.934 7.21875 28.875 7.21875C40.816 7.21875 50.5312 16.934 50.5312 28.875C50.5312 40.816 40.816 50.5312 28.875 50.5312C16.934 50.5312 7.21875 40.816 7.21875 28.875ZM68.7241 68.6208C68.0467 69.2967 67.1288 69.6763 66.1719 69.6763C65.2149 69.6763 64.297 69.2967 63.6196 68.6208L52.1039 57.1051L48.5104 48.4073L57.2086 52.0007L68.7244 63.5164C69.4003 64.1939 69.7798 65.1118 69.7797 66.0687C69.7797 67.0256 69.4 67.9434 68.7241 68.6208Z" fill="#DCDADA"/>
</svg>
