<svg width="73" height="73" viewBox="0 0 73 73" fill="none" xmlns="http://www.w3.org/2000/svg">
<path d="M70.1273 58.1135L57.9331 45.9193L48.5535 42.0441C51.6766 37.6029 53.3498 32.3044 53.3437 26.875C53.3437 12.28 41.47 0.40625 26.875 0.40625C12.28 0.40625 0.40625 12.28 0.40625 26.875C0.40625 41.47 12.28 53.3437 26.875 53.3437C32.3517 53.35 37.6939 51.6479 42.1575 48.4745L46.0226 57.8288L58.2164 70.0237C58.9984 70.8058 59.9269 71.4262 60.9487 71.8495C61.9704 72.2728 63.0656 72.4906 64.1716 72.4907C65.2776 72.4907 66.3728 72.2729 67.3946 71.8497C68.4164 71.4265 69.3449 70.8061 70.127 70.0241C70.909 69.2421 71.5294 68.3136 71.9527 67.2918C72.376 66.27 72.5939 65.1749 72.5939 64.0689C72.5939 62.9629 72.3761 61.8677 71.9529 60.8459C71.5297 59.8241 70.9094 58.8956 70.1273 58.1135ZM5.21875 26.875C5.21875 14.934 14.934 5.21875 26.875 5.21875C38.816 5.21875 48.5312 14.934 48.5312 26.875C48.5312 38.816 38.816 48.5312 26.875 48.5312C14.934 48.5312 5.21875 38.816 5.21875 26.875ZM66.7241 66.6208C66.0467 67.2967 65.1288 67.6763 64.1719 67.6763C63.2149 67.6763 62.297 67.2967 61.6196 66.6208L50.1039 55.1051L46.5104 46.4073L55.2086 50.0007L66.7244 61.5164C67.4003 62.1939 67.7798 63.1118 67.7797 64.0687C67.7797 65.0256 67.4 65.9434 66.7241 66.6208Z" fill="#373737"/>
</svg>
